<?xml version="1.0" standalone="no"?><!DOCTYPE svg PUBLIC "-//W3C//DTD SVG 1.1//EN" "http://www.w3.org/Graphics/SVG/1.1/DTD/svg11.dtd"><svg t="1626698746515" class="icon" viewBox="0 0 1024 1024" version="1.1" xmlns="http://www.w3.org/2000/svg" p-id="1411" width="64" height="64" xmlns:xlink="http://www.w3.org/1999/xlink"><defs><style type="text/css"></style></defs><path d="M516.098 54c147.278 0 266.67 119.398 266.67 266.683 0 98.537-53.438 184.591-132.913 230.762l0.004-0.012C809.06 608.26 923 760.38 923 939.113 923 955.62 909.62 969 893.115 969c-16.27 0-29.503-13.001-29.878-29.181l-0.008-0.706c0-194.264-157.474-351.746-351.729-351.746-192.312 0-348.576 154.348-351.682 345.93l-0.047 5.816c0 16.506-13.38 29.887-29.886 29.887C113.38 969 100 955.62 100 939.113c0-180.89 116.706-334.52 278.925-389.696l0.004 0.012c-77.589-46.631-129.502-131.626-129.502-228.746C249.427 173.398 368.82 54 516.097 54z m13.284 627.706c2.245 0 4.128 1.68 4.355 3.88l17.1 170.494c1.371 13.699-3.364 27.312-12.981 37.29l-26.352 27.351-25.333-27.751c-8.918-9.767-13.32-22.748-12.152-35.84l15.292-171.496c0.197-2.222 2.088-3.928 4.35-3.928zM511.5 614.955c17.017 0 43.74 2.153 43.679 17.226-0.053 12.92-10.859 30.146-17.41 36.606-6.334 6.244-16.806 6.453-25.388 6.46h-1.762c-8.582-0.007-19.054-0.216-25.387-6.46-6.552-6.46-17.363-23.686-17.41-36.606-0.062-15.073 26.66-17.226 43.678-17.226z m4.598-501.181c-114.268 0-206.9 92.636-206.9 206.91 0 114.272 92.632 206.909 206.9 206.909 114.267 0 206.9-92.637 206.9-206.91s-92.633-206.91-206.9-206.91z" fill="#1296db" p-id="1412"></path></svg>