<?xml version="1.0" standalone="no"?><!DOCTYPE svg PUBLIC "-//W3C//DTD SVG 1.1//EN" "http://www.w3.org/Graphics/SVG/1.1/DTD/svg11.dtd"><svg t="1626699063397" class="icon" viewBox="0 0 1024 1024" version="1.1" xmlns="http://www.w3.org/2000/svg" p-id="2929" xmlns:xlink="http://www.w3.org/1999/xlink" width="64" height="64"><defs><style type="text/css"></style></defs><path d="M516 71c147.46 0 267 119.54 267 267 0 98.695-53.55 184.883-133.178 231.094l0.004-0.013C809.01 626.054 922.9 778.227 922.9 957c0 16.513-13.387 29.9-29.9 29.9-16.348 0-29.632-13.12-29.896-29.406L863.1 957c0-192.037-153.737-348.166-344.85-352.027L516 605c-2.187 0-4.368-0.026-6.543-0.079L511 604.9c-192.515 0-348.944 154.503-352.053 346.277L158.9 957c0 16.513-13.387 29.9-29.9 29.9-16.513 0-29.9-13.387-29.9-29.9 0-181.12 116.9-334.935 279.364-390.113l0.004 0.013C300.89 520.188 249 435.154 249 338c0-147.46 119.54-267 267-267z m12.59 628.78c2.247 0 4.13 1.681 4.357 3.883l17.109 170.567c1.372 13.705-3.365 27.325-12.987 37.307L510.704 938.9l-25.346-27.764c-8.922-9.77-13.325-22.758-12.157-35.854l15.3-171.572c0.196-2.223 2.089-3.93 4.352-3.93z m25.81-49.546c-0.053 12.925-10.864 30.159-17.419 36.622-6.337 6.247-16.813 6.455-25.4 6.462h-1.762c-8.587-0.007-19.064-0.215-25.4-6.462-6.555-6.463-17.37-23.697-17.419-36.622-0.06-14.929 26.142-17.19 43.186-17.233l0.514-0.001c17.025 0 43.76 2.154 43.7 17.234z" fill="#1296db" p-id="2930"></path></svg>